<?xml version="1.0"?>
<svg xmlns="http://www.w3.org/2000/svg" xmlns:xlink="http://www.w3.org/1999/xlink" xmlns:svgjs="http://svgjs.com/svgjs" version="1.1" width="512" height="512" x="0" y="0" viewBox="0 0 946.25048 946" style="enable-background:new 0 0 512 512" xml:space="preserve" class=""><g>
<g xmlns="http://www.w3.org/2000/svg" id="surface1">
<path d="M 109.113281 0.125 L 77.9375 0.125 L 77.9375 78.0625 L 31.175781 78.0625 L 31.175781 109.238281 L 77.9375 109.238281 L 77.9375 140.410156 L 31.175781 140.410156 L 31.175781 171.585938 L 77.9375 171.585938 L 77.9375 218.34375 L 31.175781 218.34375 L 31.175781 249.519531 L 77.9375 249.519531 L 77.9375 296.277344 L 31.175781 296.277344 L 31.175781 327.453125 L 77.9375 327.453125 L 77.9375 374.21875 L 31.175781 374.21875 L 31.175781 405.390625 L 77.9375 405.390625 L 77.9375 452.15625 L 31.175781 452.15625 L 31.175781 483.328125 L 77.9375 483.328125 L 77.9375 530.089844 L 31.175781 530.089844 L 31.175781 561.261719 L 77.9375 561.261719 L 77.9375 608.023438 L 31.175781 608.023438 L 31.175781 639.195312 L 77.9375 639.195312 L 77.9375 685.960938 L 31.175781 685.960938 L 31.175781 717.136719 L 77.9375 717.136719 L 77.9375 763.898438 L 31.175781 763.898438 L 31.175781 795.074219 L 77.9375 795.074219 L 77.9375 826.246094 L 0 826.246094 L 0 857.421875 L 77.9375 857.421875 L 77.9375 935.359375 L 109.113281 935.359375 L 109.113281 857.421875 L 155.867188 857.421875 L 155.867188 919.765625 L 187.050781 919.765625 L 187.050781 857.421875 L 233.804688 857.421875 L 233.804688 919.765625 L 264.980469 919.765625 L 264.980469 857.421875 L 311.742188 857.421875 L 311.742188 919.765625 L 342.917969 919.765625 L 342.917969 857.421875 L 389.683594 857.421875 L 389.683594 919.765625 L 420.855469 919.765625 L 420.855469 857.421875 L 467.609375 857.421875 L 467.609375 919.765625 L 498.785156 919.765625 L 498.785156 857.421875 L 545.554688 857.421875 L 545.554688 919.765625 L 576.722656 919.765625 L 576.722656 857.421875 L 623.488281 857.421875 L 623.488281 919.765625 L 654.660156 919.765625 L 654.660156 857.421875 L 701.421875 857.421875 L 701.421875 919.765625 L 732.59375 919.765625 L 732.59375 857.421875 L 779.359375 857.421875 L 779.359375 919.765625 L 810.53125 919.765625 L 810.53125 857.421875 L 857.296875 857.421875 L 857.296875 919.765625 L 888.472656 919.765625 L 888.472656 857.421875 L 935.230469 857.421875 L 935.230469 826.246094 L 109.113281 826.246094 Z M 109.113281 0.125 " style="" fill="#ffffff" data-original="#000000"/>
<path d="M 233.804688 598.890625 L 285.140625 650.21875 C 291.222656 656.296875 301.085938 656.296875 307.175781 650.21875 L 467.609375 489.777344 L 511.152344 533.316406 C 517.238281 539.398438 527.101562 539.398438 533.191406 533.316406 L 709.21875 357.292969 L 776.132812 424.207031 C 782.21875 430.285156 792.078125 430.285156 798.175781 424.207031 L 946.25 276.128906 L 924.210938 254.089844 L 787.152344 391.140625 L 720.238281 324.226562 C 714.152344 318.148438 704.285156 318.148438 698.195312 324.226562 L 522.171875 500.253906 L 478.632812 456.722656 C 472.542969 450.636719 462.683594 450.636719 456.597656 456.722656 L 296.152344 617.15625 L 244.828125 565.832031 C 238.738281 559.746094 228.871094 559.746094 222.789062 565.832031 L 129.261719 659.351562 L 151.300781 681.394531 Z M 233.804688 598.890625 " style="" fill="#ffffff" data-original="#000000"/>
</g>
</g></svg>
