<?xml version="1.0"?>
<svg xmlns="http://www.w3.org/2000/svg" xmlns:xlink="http://www.w3.org/1999/xlink" xmlns:svgjs="http://svgjs.com/svgjs" version="1.1" width="512" height="512" x="0" y="0" viewBox="0 0 512.004 512.004" style="enable-background:new 0 0 512 512" xml:space="preserve" class=""><g><g xmlns="http://www.w3.org/2000/svg"><path d="m404.222 150.214 28.279-28.289c11.696-11.696 11.696-30.727 0-42.423s-30.727-11.696-42.421-.001l-28.292 28.281c-11.698 11.699-11.698 30.734 0 42.433 11.699 11.698 30.734 11.7 42.434-.001zm-28.292-28.287 28.292-28.281c3.897-3.898 10.24-3.899 14.138 0 3.898 3.897 3.898 10.24-.001 14.139l-28.279 28.289c-3.9 3.901-10.247 3.901-14.147 0-3.903-3.901-3.903-10.248-.003-14.147z" fill="#ffffff" data-original="#000000" style=""/><path d="m319.369 150.213-96.86 96.85c-3.904 3.902-3.904 10.238 0 14.143l28.29 28.29c3.904 3.903 10.239 3.904 14.143 0l96.85-96.86c3.905-3.905 3.905-10.237 0-14.142l-28.28-28.28c-3.906-3.905-10.237-3.905-14.143-.001zm-61.499 118.069-14.147-14.147 82.717-82.709 14.139 14.139z" fill="#ffffff" data-original="#000000" style=""/><ellipse cx="354.226" cy="241.568" rx="10" ry="10" transform="matrix(.987 -.16 .16 .987 -34.121 59.86)" fill="#ffffff" data-original="#000000" style=""/><path d="m503.211 79.506c11.723-11.723 11.725-30.707 0-42.433l-28.28-28.28c-11.724-11.723-30.708-11.726-42.433 0l-13.269 13.27-69.654 41.797c-.701.42-1.348.926-1.926 1.503l-167.56 167.56c-9.413 9.413-11.093 23.23-5.868 34.147l-107.272 107.273c-1.875 1.875-2.929 4.419-2.929 7.071s1.054 5.196 2.929 7.071l7.07 7.07-21.211 21.219c-3.904 3.905-3.904 10.236.001 14.141l7.069 7.069-56.949 56.949c-3.905 3.905-3.905 10.237 0 14.143 3.905 3.905 10.237 3.905 14.143 0l56.949-56.949 7.069 7.069c3.904 3.904 10.235 3.905 14.141.001l21.219-21.211 7.07 7.07c3.903 3.903 10.237 3.905 14.142 0 38.593-38.593 71.501-71.5 107.273-107.273 10.914 5.224 24.732 3.548 34.147-5.867l50.946-50.946c3.905-3.905 3.906-10.237 0-14.142s-10.237-3.905-14.143 0l-50.946 50.946c-3.907 3.907-10.23 3.908-14.137 0l-56.57-56.57c-3.908-3.907-3.908-10.229 0-14.138l166.689-166.69 62.959-37.779 45.527 45.527-37.779 62.959-52.143 52.143c-3.905 3.905-3.905 10.237 0 14.142s10.237 3.905 14.142 0l53.013-53.013c.578-.578 1.083-1.225 1.503-1.925l41.797-69.655zm-415.049 358.477-14.141-14.141 14.14-14.145 14.146 14.146zm42.428-14.141c-21.342-21.342-21.107-21.107-42.428-42.428l98.998-98.998 42.427 42.427-14.146 14.146-21.209-21.216c-3.904-3.907-10.236-3.907-14.142-.002-3.906 3.904-3.907 10.236-.002 14.142l21.211 21.219-14.139 14.139-7.069-7.069c-3.905-3.905-10.237-3.905-14.143 0-3.905 3.905-3.905 10.237 0 14.143l7.069 7.069-14.146 14.147-21.209-21.216c-3.905-3.907-10.236-3.907-14.142-.002-3.906 3.904-3.907 10.236-.002 14.142l21.211 21.219zm330.199-400.906 28.28 28.28c3.908 3.907 3.908 10.24 0 14.147l-7.069 7.069-42.428-42.428 7.069-7.069c3.907-3.907 10.24-3.908 14.148.001z" fill="#ffffff" data-original="#000000" style=""/></g></g></svg>
